<svg xmlns="http://www.w3.org/2000/svg" xmlns:xlink="http://www.w3.org/1999/xlink" xmlns:lucid="lucid" width="1190.93" height="939.75"><g transform="translate(-260.4138454861111 0.0041035582141968835)" lucid:page-tab-id="0_0"><path d="M936.94 372.93c0 17.94-21.05 32.56-46.82 32.56-25.9 0-46.83-14.63-46.83-32.57 0-18.13 20.92-32.75 46.82-32.75 25.77 0 46.82 14.62 46.82 32.75z" fill="#54bbe7"/><path d="M929.03 372.93c0 15.17-17.22 27.38-38.66 27.38-21.3 0-38.66-12.2-38.66-27.37 0-15.17 17.37-27.38 38.67-27.38 21.44 0 38.66 12.2 38.66 27.38z" fill="#fff"/><path d="M918.95 372.38c0 10.17-13 18.68-29.22 18.68-16.07 0-29.2-8.5-29.2-18.7 0-10.35 13.13-18.67 29.2-18.67 16.2 0 29.22 8.3 29.22 18.68z" fill="#54bbe7"/><path d="M868.68 340h43.77v12.02h-43.77V340zM867.8 393.46h43.62v14.8H867.8v-14.8zM876.34 381.63h27.17v10.9h-27.16v-10.9z" fill="#fff"/><path d="M890.12 384.58c3.44.38 3.44.38 2.55 2.78l-56 135.42c-1.03 2.22-1.03 2.22-4.6 1.85-3.45-.37-3.45-.37-2.43-2.77l56-135.43c.9-2.4.9-2.4 4.48-1.85z" fill="#29aae1"/><path d="M909.5 372.38c0 7.2-8.8 13.13-19.64 13.13-10.72 0-19.52-5.9-19.52-13.13 0-7.4 8.8-13.3 19.52-13.3 10.85 0 19.65 5.9 19.65 13.3z" fill="#fff"/><path d="M888.2 385.14c3.96-.37 3.96-.37 5.1 2.22l61.76 132.46c1.27 2.6 1.27 2.6-2.68 3.14v-.18c-3.96.56-3.96.56-5.23-2.22L885.4 388.3c-1.15-2.8-1.15-2.8 2.8-3.16z" fill="#29aae1"/><path d="M832.7 517.23l103.86-32 3.2 3.14-103.87 31.82-3.2-2.97z" fill="#29aae1"/><path d="M847.63 486.15l104.88 30.9-3.18 3.14-104.75-31.1 3.06-2.95zM857.7 458.77l50.15-30.52 2.17 2.2-50 30.73-2.3-2.4z" fill="#29aae1"/><path d="M873.28 428.8l52.3 31.26-4.33 1.3-52.18-31.26 4.2-1.3z" fill="#29aae1"/><path d="M894.84 372.56c0 2.4-2.55 4.25-5.62 4.25-3.06 0-5.48-1.84-5.48-4.24 0-2.4 2.42-4.25 5.48-4.25 3.07 0 5.62 1.85 5.62 4.26z" fill="#54bbe7"/><path d="M876.2 352.4h27.06v14.8H876.2v-14.8z" fill="#fff"/><use xlink:href="#a" transform="matrix(1,0,0,1,798.6206896551724,525) translate(13.395616319444443 23.08376736111111)"/><use xlink:href="#b" transform="matrix(1,0,0,1,798.6206896551724,525) translate(99.11610243055556 23.08376736111111)"/><path d="M280 410.5h120v89H280z" fill-opacity="0"/><path d="M280.12 432.6c.6 1.18 1.9 2.16 3.46 2.7l58.03 22.8c2.16.9 4.67 1.38 7.17 1.43 2.5.05 5.02-.34 7.3-1.08l40.82-17.65c.7-.2 1.2-.54 1.66-1 .36-.38.72-.87.84-1.4v-.55c-.24-.68-.72-1.32-1.3-1.86-.6-.55-1.45-1-2.28-1.3l-57.9-22.8c-2.28-.87-4.67-1.36-7.3-1.4-2.5-.06-5 .33-7.28 1.07l-40.95 17.6c-.85.3-1.56.8-2.04 1.43-.36.63-.48 1.32-.24 2z" fill="url(#c)"/><path d="M360.28 496.75l-.12.13-3.36 1.4-.12.14c-2.28.74-4.8 1.14-7.3 1.07-2.53-.08-5.05-.55-7.2-1.4l-58.03-22.8c-2.87-1.2-4.07-2.75-3.47-4.15l-.6-38.5c.6 1.2 1.92 2.14 3.47 2.68l58.02 22.8c2.16.86 4.68 1.4 7.2 1.46 2.52 0 5.03-.35 7.3-1.15l.13-.07 40.64-17.57c.6-.2 1.2-.53 1.68-.93.36-.47.72-.94.72-1.4l.72 39.36v.54c-.12.53-.48 1-.84 1.4-.48.47-.96.8-1.68 1l-1.44.6-35.72 15.38z" fill="#003067"/><path d="M308.8 453.88l-19.2-8.06v3.1l19.2 8.1v-3.14zm0 7.9l-19.1-8v3.08l19.1 8.05v-3.12zm3.2 4.47v-3.1l23.32 9.78v3.13l-23.32-9.8zm-3.2 3.5l-19.1-8v3.1l19.1 8v-3.1zm3.2 4.44v-3.1l23.32 9.8v3.1L312 474.2zm0-15.85v-3.1l23.23 9.74v3.08L312 458.35z" fill="#32b0e7"/><path d="M384.1 459.7c-1.53-.64-1.53-2.73 0-4.68 1.55-1.94 4.16-3 5.6-2.3 1.46.7 1.52 2.74 0 4.67-1.5 1.92-4.12 2.96-5.6 2.3z" fill="#50e6ff"/><use xlink:href="#a" transform="matrix(1,0,0,1,250,508.49008620689654) translate(11.413845486111114 21.52777777777778)"/><use xlink:href="#d" transform="matrix(1,0,0,1,250,508.49008620689654) translate(97.13433159722223 21.52777777777778)"/><path d="M1380 380h70v120h-70z" fill="#29aae1"/><path d="M1405.55 463.4h37.87v2.16h-37.87zm-.28 6h38.57v3.48h-38.57zm.14 7.56H1444v3.48h-38.57zM1428.93 438.37v-.05a4.7 4.7 0 0 1 4.7-4.7 4.7 4.7 0 0 1 4.68 4.7 4.7 4.7 0 0 1-4.68 4.7 4.7 4.7 0 0 1-4.7-4.7v-.05" fill="#fff"/><path d="M1430.6 438.35v-.03a2.87 2.87 0 0 1 2.88-2.87 2.87 2.87 0 0 1 2.87 2.87 2.87 2.87 0 0 1-2.87 2.87 2.87 2.87 0 0 1-2.87-2.88v-.03" fill="#54bbe7"/><use xlink:href="#e" transform="matrix(1,0,0,1,1350,500) translate(30.34830729166667 23.08376736111111)"/><path d="M928.84 432.5h434.78" stroke="#3a414a" fill="none"/><path d="M915.35 432.5l13-7.5v15zM1378.38 432.5l-14.26 4.63v-9.26z" stroke="#3a414a" fill="#3a414a"/><path d="M538.24 470.8l68.12-50.8 7.15 43.32 79.94-38.35-93 65 1.87-41.63-64.06 22.47z" fill="#29aae1"/><path d="M655.8 453.66H760v6.8H655.8v-6.8zM448.98 453.24h99.2v6.8H449v-6.8z" fill="#54bbe7"/><use xlink:href="#a" transform="matrix(1,0,0,1,418.97701149425296,489.98017241379307) translate(125.09505208333333 23.08376736111111)"/><use xlink:href="#f" transform="matrix(1,0,0,1,418.97701149425296,489.98017241379307) translate(210.81553819444446 23.08376736111111)"/><path d="M394.47 817.75h120v89h-120z" fill-opacity="0"/><path d="M394.6 839.86c.6 1.18 1.9 2.16 3.45 2.7l58.03 22.8c2.15.88 4.66 1.38 7.17 1.42 2.5.05 5-.34 7.28-1.07l40.83-17.65c.72-.2 1.2-.54 1.68-.98.35-.4.7-.88.83-1.42v-.54c-.24-.68-.72-1.32-1.3-1.85-.6-.54-1.45-1-2.28-1.28l-57.92-22.8c-2.27-.88-4.66-1.38-7.28-1.42-2.5-.05-5.02.34-7.3 1.07l-40.94 17.6c-.84.3-1.55.8-2.03 1.43-.36.64-.48 1.32-.24 2z" fill="url(#g)"/><path d="M474.75 904l-.12.14-3.36 1.4-.12.14c-2.28.73-4.8 1.13-7.3 1.07-2.53-.07-5.05-.54-7.2-1.4l-58.03-22.8c-2.87-1.2-4.07-2.74-3.47-4.14l-.6-38.5c.6 1.2 1.92 2.14 3.47 2.68l58.03 22.8c2.15.86 4.67 1.4 7.2 1.46 2.5 0 5.02-.33 7.3-1.13l.12-.06 40.64-17.58c.6-.2 1.2-.53 1.7-.93.35-.47.7-.94.7-1.4l.73 39.36v.52c-.12.54-.48 1-.84 1.4-.5.48-.97.8-1.7 1l-1.43.6L474.75 904z" fill="#003067"/><path d="M423.27 861.13l-19.2-8.05v3.1l19.2 8.1v-3.14zm0 7.9l-19.1-8v3.08l19.1 8.07v-3.13zm3.2 4.48v-3.1l23.32 9.8v3.12l-23.33-9.82zm-3.2 3.52l-19.1-8.02v3.1l19.1 8v-3.08zm3.2 4.43v-3.1l23.32 9.82v3.1l-23.33-9.82zm0-15.85v-3.1l23.23 9.75v3.1l-23.23-9.75z" fill="#32b0e7"/><path d="M498.58 866.97c-1.53-.66-1.53-2.74 0-4.7 1.54-1.94 4.15-3 5.6-2.3 1.45.7 1.5 2.75 0 4.68-1.5 1.92-4.12 2.96-5.6 2.32z" fill="#50e6ff"/><use xlink:href="#a" transform="matrix(1,0,0,1,364.47139915892114,915.7453264838908) translate(11.413845486111114 21.52777777777778)"/><use xlink:href="#d" transform="matrix(1,0,0,1,364.47139915892114,915.7453264838908) translate(97.13433159722223 21.52777777777778)"/><path d="M614.34 743.96l18-83.04 33.84 27.96 35.1-81.42-27.44 110.1-25.94-32.62-33.56 59.02z" fill="#29aae1"/><path d="M691.73 653.82l78.57-68.44 4.46 5.12-78.57 68.44-4.47-5.12zM535.5 789.35l74.8-65.17 4.47 5.12-74.8 65.17-4.47-5.12z" fill="#54bbe7"/><use xlink:href="#a" transform="matrix(0.7540546878116718,-0.6568116379824904,0.6568116379824904,0.7540546878116718,537.0062807402192,836.7567447326335) translate(125.09505208333333 23.08376736111111)"/><use xlink:href="#f" transform="matrix(0.7540546878116718,-0.6568116379824904,0.6568116379824904,0.7540546878116718,537.0062807402192,836.7567447326335) translate(210.81553819444446 23.08376736111111)"/><path d="M380 0h120v89H380z" fill-opacity="0"/><path d="M380.12 22.12c.6 1.17 1.9 2.15 3.46 2.7l58.03 22.8c2.16.88 4.67 1.37 7.17 1.42 2.5.05 5.02-.34 7.3-1.08l40.82-17.65c.7-.2 1.2-.53 1.66-.98.36-.4.72-.88.84-1.42v-.54c-.24-.68-.72-1.32-1.3-1.86-.6-.54-1.45-.98-2.28-1.27l-57.9-22.8c-2.28-.9-4.67-1.38-7.3-1.43-2.5-.05-5 .34-7.28 1.08l-40.95 17.6c-.85.3-1.56.8-2.04 1.43-.36.64-.48 1.33-.24 2.02z" fill="url(#h)"/><path d="M460.28 86.26l-.12.13-3.36 1.4-.12.13c-2.28.74-4.8 1.14-7.3 1.07-2.53-.07-5.05-.53-7.2-1.4l-58.03-22.8c-2.87-1.2-4.07-2.74-3.47-4.14l-.6-38.5c.6 1.2 1.92 2.14 3.47 2.68l58.02 22.8c2.16.86 4.68 1.4 7.2 1.46 2.52 0 5.03-.34 7.3-1.14l.13-.07 40.64-17.58c.6-.2 1.2-.54 1.68-.94.36-.47.72-.94.72-1.4l.72 39.36v.54c-.12.53-.48 1-.84 1.4-.48.47-.96.8-1.68 1l-1.44.6-35.72 15.38z" fill="#003067"/><path d="M408.8 43.4l-19.2-8.07v3.1l19.2 8.1v-3.14zm0 7.9l-19.1-8.02v3.1l19.1 8.04V51.3zm3.2 4.46v-3.1l23.32 9.78v3.13L412 55.77zm-3.2 3.5l-19.1-8v3.1l19.1 8v-3.1zm3.2 4.44v-3.1l23.32 9.82v3.1L412 63.7zm0-15.84v-3.1l23.23 9.74v3.1L412 47.85z" fill="#32b0e7"/><path d="M484.1 49.22c-1.53-.65-1.53-2.74 0-4.7 1.55-1.93 4.16-3 5.6-2.3 1.46.7 1.52 2.75 0 4.68-1.5 1.93-4.12 2.96-5.6 2.32z" fill="#50e6ff"/><g><use xlink:href="#a" transform="matrix(1,0,0,1,350,98) translate(11.413845486111114 21.52777777777778)"/><use xlink:href="#d" transform="matrix(1,0,0,1,350,98) translate(97.13433159722223 21.52777777777778)"/></g><g><path d="M580.9 156.12l84.87 4.45-22.18 37.9 85.98 21.58-113.08-9.43 28.05-30.83-63.64-23.68z" fill="#29aae1"/><path d="M682.3 218.07l80.14 66.58-4.34 5.22-80.14-66.58 4.34-5.23zM523.48 85.57l76.3 63.4-4.33 5.22-76.3-63.4 4.33-5.23z" fill="#54bbe7"/></g><g><use xlink:href="#a" transform="matrix(0.7691599597017378,0.6390563014254856,-0.6390563014254856,0.7691599597017378,476.92520120894784,94.65425755094918) translate(125.09505208333333 23.08376736111111)"/><use xlink:href="#f" transform="matrix(0.7691599597017378,0.6390563014254856,-0.6390563014254856,0.7691599597017378,476.92520120894784,94.65425755094918) translate(210.81553819444446 23.08376736111111)"/></g><defs><path d="M180 0v-1490h190v1322h690V0H180" id="i"/><path d="M180 0v-1490h510c348 0 508 209 508 474 0 266-160 477-507 477H370V0H180zm190-706h312c236 0 327-133 327-310 0-176-91-307-329-307H370v617" id="j"/><path d="M458 0L52-1490h194c108 439 233 855 324 1313 92-459 221-873 331-1313h216c110 438 234 854 330 1307 92-455 216-869 323-1307h196L1558 0h-221l-256-944c-26-95-50-200-73-331-22 122-44 223-73 331L680 0H458" id="k"/><path d="M52 0l541-1490h220L1361 0h-200l-149-416H398L254 0H52zm404-582h497c-103-290-145-390-251-756-108 377-145 460-246 756" id="l"/><path d="M180 0v-1490h224l606 953c40 63 108 177 176 312-27-437-7-821-13-1265h190V0h-226C860-448 622-778 356-1262c27 476 11 792 15 1262H180" id="m"/><g id="a"><use transform="matrix(0.010850694444444444,0,0,0.010850694444444444,0,0)" xlink:href="#i"/><use transform="matrix(0.010850694444444444,0,0,0.010850694444444444,12.565104166666666,0)" xlink:href="#j"/><use transform="matrix(0.010850694444444444,0,0,0.010850694444444444,26.7578125,0)" xlink:href="#k"/><use transform="matrix(0.010850694444444444,0,0,0.010850694444444444,47.39583333333333,0)" xlink:href="#l"/><use transform="matrix(0.010850694444444444,0,0,0.010850694444444444,62.72786458333333,0)" xlink:href="#m"/></g><path d="M538 24C308 24 148-78 108-271l171-41c32 123 123 178 257 178 156 0 256-77 256-169 0-77-54-128-164-154l-186-44c-203-48-300-148-300-305 0-192 176-326 414-326 230 0 351 112 402 269l-163 42c-31-80-94-158-238-158-133 0-233 69-233 162 0 83 57 129 188 160l169 40c203 48 298 149 298 302 0 196-179 339-441 339" id="n"/><path d="M598-1118v154H368v674c0 100 37 144 132 144 23 0 62-6 92-12L629-6c-37 13-88 20-134 20-193 0-307-107-307-290v-688H20v-154h168v-266h180v266h230" id="o"/><path d="M471 26C259 26 90-98 90-318c0-256 228-303 435-329 202-27 287-16 287-108 0-139-79-219-234-219-161 0-248 86-283 164l-173-57c86-203 278-265 451-265 150 0 419 46 419 395V0H815v-152h-12C765-73 660 26 471 26zm31-159c199 0 310-134 310-271v-155c-30 35-226 55-295 64-131 17-246 59-246 186 0 116 97 176 231 176" id="p"/><path d="M338-670V0H158v-1118h173l1 207c72-158 192-221 342-221 226 0 378 139 378 422V0H872v-695c0-172-96-275-252-275-161 0-282 109-282 300" id="q"/><path d="M158 0v-1118h180V0H158zm91-1301c-68 0-125-53-125-119s57-119 125-119c69 0 126 53 126 119s-57 119-126 119" id="r"/><path d="M613 24c-304 0-509-231-509-576 0-350 205-580 509-580 216 0 392 114 453 309l-173 49c-33-115-133-197-280-197-223 0-326 196-326 419 0 220 103 415 326 415 150 0 252-85 285-206l172 49C1010-95 832 24 613 24" id="s"/><g id="b"><use transform="matrix(0.010850694444444444,0,0,0.010850694444444444,0,0)" xlink:href="#n"/><use transform="matrix(0.010850694444444444,0,0,0.010850694444444444,11.729600694444445,0)" xlink:href="#o"/><use transform="matrix(0.010850694444444444,0,0,0.010850694444444444,19.108072916666668,0)" xlink:href="#p"/><use transform="matrix(0.010850694444444444,0,0,0.010850694444444444,31.586371527777775,0)" xlink:href="#q"/><use transform="matrix(0.010850694444444444,0,0,0.010850694444444444,44.71571180555556,0)" xlink:href="#r"/><use transform="matrix(0.010850694444444444,0,0,0.010850694444444444,50.09765625,0)" xlink:href="#s"/><use transform="matrix(0.010850694444444444,0,0,0.010850694444444444,63.009982638888886,0)" xlink:href="#p"/></g><linearGradient gradientUnits="userSpaceOnUse" id="c" x1="339.7" y1="410.49" x2="339.7" y2="459.53"><stop offset="0%" stop-color="#5ea0ef"/><stop offset="18%" stop-color="#559cec"/><stop offset="47%" stop-color="#3c91e5"/><stop offset="84%" stop-color="#1380da"/><stop offset="100%" stop-color="#0078d4"/></linearGradient><path d="M628 24c-324 0-524-230-524-574 0-343 198-582 503-582 237 0 487 146 487 559v75H286c9 234 145 362 343 362 132 0 231-58 273-172l174 48C1024-91 857 24 628 24zM287-650h624c-17-190-120-322-304-322-192 0-309 151-320 322" id="t"/><path d="M126 0v-134l627-806v-11H146v-167h839v143L376-178v11h629V0H126" id="u"/><path d="M613 24c-304 0-509-231-509-576 0-350 205-580 509-580 305 0 511 230 511 580 0 345-206 576-511 576zm0-161c226 0 329-195 329-415 0-222-103-419-329-419-223 0-326 196-326 419 0 220 103 415 326 415" id="v"/><path d="M158 0v-1118h174v172h12c41-113 157-188 290-188 26 0 70 2 91 3v181c-11-2-60-10-108-10-161 0-279 109-279 260V0H158" id="w"/><g id="d"><use transform="matrix(0.010850694444444444,0,0,0.010850694444444444,0,0)" xlink:href="#n"/><use transform="matrix(0.010850694444444444,0,0,0.010850694444444444,11.729600694444445,0)" xlink:href="#t"/><use transform="matrix(0.010850694444444444,0,0,0.010850694444444444,24.68532986111111,0)" xlink:href="#q"/><use transform="matrix(0.010850694444444444,0,0,0.010850694444444444,37.814670138888886,0)" xlink:href="#u"/><use transform="matrix(0.010850694444444444,0,0,0.010850694444444444,49.76128472222221,0)" xlink:href="#v"/><use transform="matrix(0.010850694444444444,0,0,0.010850694444444444,63.0859375,0)" xlink:href="#w"/></g><path d="M657 26c-323 0-524-166-541-416h195c15 169 171 246 346 246 202 0 356-106 356-265 5-203-294-238-475-293-239-73-380-191-380-389 0-252 224-419 512-419 294 0 499 171 508 396H992c-17-145-151-228-328-228-193 0-321 102-321 242 0 156 175 211 284 241l149 41c160 44 422 134 422 412 0 244-197 432-541 432" id="x"/><path d="M481 0L54-1118h197c107 314 236 620 325 951 87-331 217-637 324-951h197L670 0H481" id="y"/><g id="e"><use transform="matrix(0.010850694444444444,0,0,0.010850694444444444,0,0)" xlink:href="#x"/><use transform="matrix(0.010850694444444444,0,0,0.010850694444444444,14.2578125,0)" xlink:href="#t"/><use transform="matrix(0.010850694444444444,0,0,0.010850694444444444,27.213541666666664,0)" xlink:href="#w"/><use transform="matrix(0.010850694444444444,0,0,0.010850694444444444,35.92664930555555,0)" xlink:href="#y"/><use transform="matrix(0.010850694444444444,0,0,0.010850694444444444,47.98177083333333,0)" xlink:href="#t"/><use transform="matrix(0.010850694444444444,0,0,0.010850694444444444,60.937499999999986,0)" xlink:href="#w"/></g><path d="M338-1490V0H158v-1490h180" id="z"/><path d="M158 0v-1490h180v865h22l478-493h223L593-638 1096 0H865L456-523 338-412V0H158" id="A"/><g id="f"><use transform="matrix(0.010850694444444444,0,0,0.010850694444444444,0,0)" xlink:href="#z"/><use transform="matrix(0.010850694444444444,0,0,0.010850694444444444,5.381944444444445,0)" xlink:href="#r"/><use transform="matrix(0.010850694444444444,0,0,0.010850694444444444,10.76388888888889,0)" xlink:href="#q"/><use transform="matrix(0.010850694444444444,0,0,0.010850694444444444,23.893229166666664,0)" xlink:href="#A"/></g><linearGradient gradientUnits="userSpaceOnUse" id="g" x1="454.17" y1="817.75" x2="454.17" y2="866.78"><stop offset="0%" stop-color="#5ea0ef"/><stop offset="18%" stop-color="#559cec"/><stop offset="47%" stop-color="#3c91e5"/><stop offset="84%" stop-color="#1380da"/><stop offset="100%" stop-color="#0078d4"/></linearGradient><linearGradient gradientUnits="userSpaceOnUse" id="h" x1="439.7" x2="439.7" y2="49.04"><stop offset="0%" stop-color="#5ea0ef"/><stop offset="18%" stop-color="#559cec"/><stop offset="47%" stop-color="#3c91e5"/><stop offset="84%" stop-color="#1380da"/><stop offset="100%" stop-color="#0078d4"/></linearGradient></defs></g></svg>